<svg width="300" height="225" version="1.0" viewBox="0 0 224.88 168.75" xmlns="http://www.w3.org/2000/svg" zoomAndPan="magnify"> <defs> <clipPath id="9f1a1056b1"> <path d="m0.10547 11.094h224.55v146.03h-224.55z"/> </clipPath> <clipPath id="d40c00a767"> <path d="m0.10547 11.094h224.55v16.906h-224.55z"/> </clipPath> <clipPath id="9ba99d48ff"> <path d="m76.047 45.07h131.9v85.93h-131.9z"/> </clipPath> <clipPath id="9eae3bd8f1"> <path d="m84.285 45.07h115.4c4.5469 0 8.2344 3.6875 8.2344 8.2383v69.395c0 4.5508-3.6875 8.2383-8.2344 8.2383h-115.4c-4.5508 0-8.2383-3.6875-8.2383-8.2383v-69.395c0-4.5508 3.6875-8.2383 8.2383-8.2383"/> </clipPath> <clipPath id="24e9334541"> <path d="m84.738 65.777h113.26v60.027h-113.26z"/> </clipPath> <clipPath id="03e6ecb9e1"> <path d="m92.977 65.777h96.508c4.5508 0 8.2383 3.6875 8.2383 8.2344v43.371c0 4.5508-3.6875 8.2383-8.2383 8.2383h-96.508c-4.5508 0-8.2383-3.6875-8.2383-8.2383v-43.371c0-4.5469 3.6875-8.2344 8.2383-8.2344"/> </clipPath> <clipPath id="917c0fe69f"> <path d="m2.9805 33.699h50.551v118.3h-50.551z"/> </clipPath> <clipPath id="ecd33b77de"> <path d="m11.219 33.699h34.074c4.5469 0 8.2383 3.6875 8.2383 8.2383v101.48c0 4.5469-3.6914 8.2344-8.2383 8.2344h-34.074c-4.5508 0-8.2383-3.6875-8.2383-8.2344v-101.48c0-4.5508 3.6875-8.2383 8.2383-8.2383"/> </clipPath> <clipPath id="6ecfbb3965"> <path d="m6.9023 47.023h41.098v28.434h-41.098z"/> </clipPath> <clipPath id="8942c7dea3"> <path d="m15.141 47.023h24.984c4.5508 0 8.2383 3.6875 8.2383 8.2383v11.789c0 4.5508-3.6875 8.2383-8.2383 8.2383h-24.984c-4.5508 0-8.2383-3.6875-8.2383-8.2383v-11.789c0-4.5508 3.6875-8.2383 8.2383-8.2383"/> </clipPath> <clipPath id="4b7f78c039"> <path d="m6.9023 77.535h41.098v10.465h-41.098z"/> </clipPath> <clipPath id="863c697f0d"> <path d="m12.137 77.535h30.992c2.8906 0 5.2344 2.3438 5.2344 5.2344s-2.3438 5.2383-5.2344 5.2383h-30.992c-2.8906 0-5.2344-2.3477-5.2344-5.2383s2.3438-5.2344 5.2344-5.2344"/> </clipPath> <clipPath id="62110cb7b1"> <path d="m6.2812 122.31h20.719v27.645h-20.719z"/> </clipPath> <clipPath id="8d796ee8fd"> <path d="m14.52 122.31h4.2539c4.5508 0 8.2383 3.6875 8.2383 8.2344v10.637c0 4.5469-3.6875 8.2383-8.2383 8.2383h-4.2539c-4.5508 0-8.2383-3.6914-8.2383-8.2383v-10.637c0-4.5469 3.6875-8.2344 8.2383-8.2344"/> </clipPath> <clipPath id="f52367c752"> <path d="m29.906 122.31h21.094v27.645h-21.094z"/> </clipPath> <clipPath id="d34850ca6b"> <path d="m38.141 122.31h4.2578c4.5508 0 8.2383 3.6875 8.2383 8.2344v10.637c0 4.5469-3.6875 8.2383-8.2383 8.2383h-4.2578c-4.5469 0-8.2344-3.6914-8.2344-8.2383v-10.637c0-4.5469 3.6875-8.2344 8.2344-8.2344"/> </clipPath> <clipPath id="d37a60beb0"> <path d="m6.3867 112.82h20.613v7.1094h-20.613z"/> </clipPath> <clipPath id="47874c6f84"> <path d="m9.8633 112.82h13.672c0.92188 0 1.8086 0.36719 2.457 1.0156 0.65234 0.65234 1.0195 1.5391 1.0195 2.457 0 0.92188-0.36719 1.8086-1.0195 2.4609-0.64844 0.64844-1.5352 1.0156-2.457 1.0156h-13.672c-0.92188 0-1.8086-0.36719-2.457-1.0156-0.65234-0.65234-1.0195-1.5391-1.0195-2.4609 0-0.91797 0.36719-1.8047 1.0195-2.457 0.64844-0.64844 1.5352-1.0156 2.457-1.0156"/> </clipPath> <clipPath id="a8cabd01f0"> <path d="m30.012 112.82h20.988v7.1094h-20.988z"/> </clipPath> <clipPath id="85c78a4956"> <path d="m33.488 112.82h13.672c0.92188 0 1.8086 0.36719 2.457 1.0156 0.65234 0.65234 1.0195 1.5391 1.0195 2.457 0 0.92188-0.36719 1.8086-1.0195 2.4609-0.64844 0.64844-1.5352 1.0156-2.457 1.0156h-13.672c-0.92188 0-1.8086-0.36719-2.457-1.0156-0.65234-0.65234-1.0195-1.5391-1.0195-2.4609 0-0.91797 0.36719-1.8047 1.0195-2.457 0.64844-0.64844 1.5352-1.0156 2.457-1.0156"/> </clipPath> <clipPath id="b3c261df45"> <path d="m6.2812 104.2h20.719v7.1094h-20.719z"/> </clipPath> <clipPath id="bdb1286070"> <path d="m9.7539 104.2h13.676c0.92187 0 1.8047 0.36719 2.457 1.0195 0.65234 0.64844 1.0195 1.5352 1.0195 2.457 0 0.92187-0.36719 1.8047-1.0195 2.457-0.65234 0.65234-1.5352 1.0156-2.457 1.0156h-13.676c-0.92188 0-1.8047-0.36328-2.457-1.0156-0.65234-0.65234-1.0156-1.5352-1.0156-2.457 0-0.92188 0.36328-1.8086 1.0156-2.457 0.65234-0.65234 1.5352-1.0195 2.457-1.0195"/> </clipPath> <clipPath id="357d064416"> <path d="m6.1719 95.59h20.828v7.1094h-20.828z"/> </clipPath> <clipPath id="c5fa8f7de4"> <path d="m9.6484 95.59h13.676c0.92188 0 1.8047 0.36719 2.457 1.0195 0.64844 0.65234 1.0156 1.5352 1.0156 2.457s-0.36719 1.8047-1.0156 2.457c-0.65234 0.65234-1.5352 1.0156-2.457 1.0156h-13.676c-0.92188 0-1.8047-0.36328-2.457-1.0156-0.65234-0.65234-1.0195-1.5352-1.0195-2.457s0.36719-1.8047 1.0195-2.457 1.5352-1.0195 2.457-1.0195"/> </clipPath> <clipPath id="090d30b53a"> <path d="m30.012 104.2h20.988v7.1094h-20.988z"/> </clipPath> <clipPath id="cebb2d12eb"> <path d="m33.488 104.2h13.672c0.92188 0 1.8086 0.36719 2.457 1.0195 0.65234 0.64844 1.0195 1.5352 1.0195 2.457 0 0.92187-0.36719 1.8047-1.0195 2.457-0.64844 0.65234-1.5352 1.0156-2.457 1.0156h-13.672c-0.92188 0-1.8086-0.36328-2.457-1.0156-0.65234-0.65234-1.0195-1.5352-1.0195-2.457 0-0.92188 0.36719-1.8086 1.0195-2.457 0.64844-0.65234 1.5352-1.0195 2.457-1.0195"/> </clipPath> <clipPath id="f0f67287ed"> <path d="m30.012 95.59h20.988v7.1094h-20.988z"/> </clipPath> <clipPath id="84754ed764"> <path d="m33.488 95.59h13.672c0.92188 0 1.8086 0.36719 2.457 1.0195 0.65234 0.65234 1.0195 1.5352 1.0195 2.457s-0.36719 1.8047-1.0195 2.457c-0.64844 0.65234-1.5352 1.0156-2.457 1.0156h-13.672c-0.92188 0-1.8086-0.36328-2.457-1.0156-0.65234-0.65234-1.0195-1.5352-1.0195-2.457s0.36719-1.8047 1.0195-2.457c0.64844-0.65234 1.5352-1.0195 2.457-1.0195"/> </clipPath> <clipPath id="47e4ebd526"> <path d="m84.738 51.215h15.727v11.234h-15.727z"/> </clipPath> <clipPath id="783db17a53"> <path d="m86 53h7v9.4492h-7z"/> </clipPath> <clipPath id="db04422fd9"> <path d="m84.738 51.215h2.2617v11.234h-2.2617z"/> </clipPath> <clipPath id="73220757af"> <path d="m84.738 51.215h15.727v11.234h-15.727z"/> </clipPath> <clipPath id="7ab574e683"> <path d="m98 51.215h2.4648v11.234h-2.4648z"/> </clipPath> <clipPath id="234f6c4f8d"> <path d="m85 52h15.465v10.449h-15.465z"/> </clipPath> <clipPath id="c019284a74"> <path d="m84.738 51.215h15.727v7.7852h-15.727z"/> </clipPath> <clipPath id="25d28d3a29"> <path d="m139.49 76.016h50.551v39.148h-50.551z"/> </clipPath> <clipPath id="27082bf650"> <path d="m88.027 76.016h25.277v6.9844h-25.277z"/> </clipPath> <clipPath id="15bcb48037"> <path d="m91.262 76.016h18.812c1.7852 0 3.2305 1.4492 3.2305 3.2305 0 1.7852-1.4453 3.2344-3.2305 3.2344h-18.812c-1.7852 0-3.2344-1.4492-3.2344-3.2344 0-1.7812 1.4492-3.2305 3.2344-3.2305"/> </clipPath> <clipPath id="751216714d"> <path d="m88.027 84.773h38.973v7.1094h-38.973z"/> </clipPath> <clipPath id="de1dab00b3"> <path d="m91.262 84.773h32.59c1.7852 0 3.2305 1.4492 3.2305 3.2344 0 1.7812-1.4453 3.2305-3.2305 3.2305h-32.59c-1.7852 0-3.2344-1.4492-3.2344-3.2305 0-1.7852 1.4492-3.2344 3.2344-3.2344"/> </clipPath> <clipPath id="8785da9842"> <path d="m88.027 94.352h42.688v26.957h-42.688z"/> </clipPath> <clipPath id="177ceeb106"> <path d="m91.707 97.746h41.293v28.434h-41.293z"/> </clipPath> <clipPath id="82ef2166ee"> <path d="m99.945 97.746h24.988c4.5508 0 8.2383 3.6875 8.2383 8.2344v11.793c0 4.5469-3.6875 8.2344-8.2383 8.2344h-24.988c-4.5469 0-8.2383-3.6875-8.2383-8.2344v-11.793c0-4.5469 3.6914-8.2344 8.2383-8.2344"/> </clipPath> <clipPath id="91bff1a771"> <path d="m112.44 115.61h8.9844v8.9883h-8.9844z"/> </clipPath> <clipPath id="2fe8c575c7"> <path d="m117.61 120.62h7.4883v7.4922h-7.4883z"/> </clipPath> </defs> <g clip-path="url(#9f1a1056b1)"> <path d="m218.73 157.12h-212.63c-3.25 0-5.9102-2.6523-5.9102-5.8945v-134.24c0-3.2422 2.6602-5.8945 5.9102-5.8945h212.63c3.25 0 5.9062 2.6523 5.9062 5.8945v134.24c0.050781 3.2422-2.6562 5.8945-5.9062 5.8945z" fill="#fff"/> </g> <g clip-path="url(#d40c00a767)"> <path d="m224.69 16.988c0-3.2422-2.6602-5.8945-5.9102-5.8945h-212.68c-3.25 0-5.9102 2.6523-5.9102 5.8945v10.91h224.5z" fill="#505659"/> </g> <path d="m4.7227 19.496c0-1.6211 1.3281-3 3.0039-3 1.6719 0 3.0039 1.3281 3.0039 3 0 1.6211-1.332 2.9961-3.0039 2.9961-1.6758 0-3.0039-1.375-3.0039-2.9961z" fill="#ff3015"/> <path d="m24.414 19.496c0-1.6211 1.332-3 3.0039-3 1.6758 0 3.0039 1.3281 3.0039 3 0 1.6211-1.3281 2.9961-3.0039 2.9961-1.6719 0-3.0039-1.375-3.0039-2.9961z" fill="#78c300"/> <path d="m14.57 19.496c0-1.6211 1.3281-3 3-3 1.625 0 3.0039 1.3281 3.0039 3 0 1.6211-1.3281 2.9961-3.0039 2.9961-1.6719-0.046876-3-1.375-3-2.9961z" fill="#ffc915"/> <g clip-path="url(#9ba99d48ff)"> <g clip-path="url(#9eae3bd8f1)"> <path d="m76.047 45.07h131.9v86.094h-131.9z" fill="#b4b6b7"/> </g> </g> <g clip-path="url(#24e9334541)"> <g clip-path="url(#03e6ecb9e1)"> <path d="m84.738 65.777h112.95v60.027h-112.95z" fill="#fff"/> </g> </g> <g clip-path="url(#917c0fe69f)"> <g clip-path="url(#ecd33b77de)"> <path d="m2.9805 33.699h50.551v117.69h-50.551z" fill="#b4b6b7"/> </g> </g> <g clip-path="url(#6ecfbb3965)"> <g clip-path="url(#8942c7dea3)"> <path d="m6.9023 47.023h41.07v28.434h-41.07z" fill="#fff"/> </g> </g> <g clip-path="url(#4b7f78c039)"> <g clip-path="url(#863c697f0d)"> <path d="m6.9023 77.535h41.07v10.27h-41.07z" fill="#fff"/> </g> </g> <g clip-path="url(#62110cb7b1)"> <g clip-path="url(#8d796ee8fd)"> <path d="m6.2812 122.31h20.535v26.852h-20.535z" fill="#fff"/> </g> </g> <g clip-path="url(#f52367c752)"> <g clip-path="url(#d34850ca6b)"> <path d="m29.906 122.31h20.535v26.852h-20.535z" fill="#fff"/> </g> </g> <path transform="matrix(.74592 0 0 .74889 6.3869 92.301)" d="m-2.8199e-4 0.50078h55.222" fill="none" stroke="#fff"/> <g clip-path="url(#d37a60beb0)"> <g clip-path="url(#47874c6f84)"> <path d="m6.3867 112.82h20.535v7.1094h-20.535z" fill="#fff"/> </g> </g> <g clip-path="url(#a8cabd01f0)"> <g clip-path="url(#85c78a4956)"> <path d="m30.012 112.82h20.535v7.1094h-20.535z" fill="#fff"/> </g> </g> <g clip-path="url(#b3c261df45)"> <g clip-path="url(#bdb1286070)"> <path d="m6.2812 104.2h20.535v7.1094h-20.535z" fill="#fff"/> </g> </g> <g clip-path="url(#357d064416)"> <g clip-path="url(#c5fa8f7de4)"> <path d="m6.1719 95.59h20.535v7.1094h-20.535z" fill="#fff"/> </g> </g> <g clip-path="url(#090d30b53a)"> <g clip-path="url(#cebb2d12eb)"> <path d="m30.012 104.2h20.535v7.1094h-20.535z" fill="#fff"/> </g> </g> <g clip-path="url(#f0f67287ed)"> <g clip-path="url(#84754ed764)"> <path d="m30.012 95.59h20.535v7.1094h-20.535z" fill="#fff"/> </g> </g> <g clip-path="url(#47e4ebd526)"> <path d="m99.32 62.41h-13.441c-0.52344 0-0.96484-0.41016-0.96484-0.9375v-9.1367c0.003907-0.25781 0.097657-0.48438 0.28516-0.66797 0.1875-0.18359 0.41406-0.27734 0.67969-0.27734h13.441c0.52734 0 0.96484 0.42578 0.96484 0.94922v9.1211c-0.011718 0.54297-0.4375 0.94922-0.96484 0.94922z" fill="#f2f2f2"/> </g> <g clip-path="url(#783db17a53)"> <path d="m86.836 62.41 5.75-4.1367 0.039062-0.23828-5.9336-4.1875-0.011718 8.3594z" fill="#221f1f" fill-opacity=".098"/> </g> <g clip-path="url(#db04422fd9)"> <path d="m85.879 62.41c-0.53125 0-0.96484-0.41016-0.96484-0.9375v-9.1484c0-0.52734 0.43359-0.62109 0.96484-0.62109 0.53516 0 0.96484 0.10938 0.96484 0.62109v10.086z" fill="#d44c3d"/> </g> <g clip-path="url(#73220757af)"> <path d="m85.879 51.848c0.68359 0 0.82031 0.20312 0.82031 0.47656v9.9531h-0.82031c-0.44922 0-0.81641-0.35938-0.81641-0.80469v-9.1484c-0.011719-0.28125 0.13281-0.47656 0.81641-0.47656zm0-0.13281c-0.53125 0-0.96484 0.10547-0.96484 0.60938v9.1367c0 0.125 0.023438 0.25 0.070313 0.36328 0.050781 0.11719 0.11719 0.22266 0.21094 0.3125 0.089844 0.089843 0.19531 0.15625 0.3125 0.20312 0.12109 0.046875 0.24609 0.070312 0.37109 0.070312h0.96484v-10.086c-0.007812-0.51562-0.42578-0.60938-0.96484-0.60938zm13.441 0.13281c0.62109 0 0.82031 0.11719 0.82031 0.45312v9.1836c0 0.44531-0.36719 0.80469-0.82031 0.80469h-0.81641v-9.9883c-0.011718-0.34766 0.19531-0.45312 0.81641-0.45312zm0-0.13281c-0.53516 0-0.96484 0.070312-0.96484 0.58594v10.121h0.96484c0.53906 0 0.96484-0.42578 0.96484-0.94922v-9.1836c-0.011718-0.51562-0.4375-0.57422-0.96484-0.57422z" fill="#d44c3d"/> </g> <g clip-path="url(#7ab574e683)"> <path d="m99.32 62.41h-0.96484v-10.109c0-0.52734 0.43359-0.58594 0.96484-0.58594s0.96484 0.070312 0.96484 0.58594v9.1836c-0.003906 0.25781-0.10156 0.47656-0.28906 0.65625s-0.41406 0.26953-0.67578 0.26953z" fill="#d44c3d"/> </g> <g clip-path="url(#234f6c4f8d)"> <path d="m95.207 62.41-10.207-9.6836 0.53906 0.21484 7.1094 5.0273 7.6367-5.5117v9.0273c0 0.26172-0.097656 0.48438-0.28516 0.66797-0.1875 0.17969-0.41406 0.26953-0.67969 0.26953z" fill="#221f1f" fill-opacity=".0784"/> </g> <g clip-path="url(#c019284a74)" fill="#d44c3d"> <path d="m92.582 58.285-7.25-5.168c-0.43359-0.3125-0.55078-0.91016-0.23438-1.332 0.32031-0.41797 0.92969-0.51562 1.3672-0.20312l6.1289 4.3789 6.1641-4.4375c0.43359-0.3125 1.0273-0.21484 1.3438 0.21484 0.31641 0.42578 0.21875 1.0078-0.21875 1.3203z"/> <path d="m99.32 51.484c0.25781 0 0.51172 0.12109 0.67188 0.33984 0.25781 0.35938 0.18359 0.86328-0.18359 1.1328l-7.2266 5.1602-7.1641-5.1055c-0.36719-0.26562-0.46484-0.78125-0.21484-1.1328 0.14844-0.21875 0.40625-0.35156 0.68359-0.35156 0.18359 0 0.35547 0.050781 0.48828 0.15625l6.1172 4.3672 0.085937 0.046875 0.082031-0.046875 6.1602-4.4336c0.16016-0.082032 0.31641-0.13281 0.5-0.13281zm0-0.14062c-0.19531 0-0.40234 0.046875-0.5625 0.17969l-6.1641 4.4375-6.1406-4.3906c-0.15625-0.12109-0.36328-0.17969-0.57422-0.17969-0.30469 0.011719-0.60938 0.14453-0.79297 0.39844-0.30469 0.42188-0.17969 1.0078 0.24609 1.3164l7.25 5.1797 7.3008-5.2266c0.21484-0.15625 0.33984-0.35938 0.38281-0.61719 0.042969-0.25781-0.011719-0.49219-0.16406-0.70312-0.19531-0.25391-0.48828-0.39844-0.78125-0.39844z"/> </g> <g clip-path="url(#25d28d3a29)"> <path d="m139.49 76.016h50.551v39.492h-50.551z" fill="#b4b6b7"/> </g> <g clip-path="url(#27082bf650)"> <g clip-path="url(#15bcb48037)"> <path d="m88.027 76.016h25.277v6.3203h-25.277z" fill="#b4b6b7"/> </g> </g> <g clip-path="url(#751216714d)"> <g clip-path="url(#de1dab00b3)"> <path d="m88.027 84.773h38.703v6.3203h-38.703z" fill="#b4b6b7"/> </g> </g> <g clip-path="url(#8785da9842)"> <path d="m123.2 121.31c-0.13281 0-0.19531-0.066406-0.19531-0.19922 0-0.13281 0.0625-0.19531 0.19531-0.19531h1.4961c0.12891 0 0.19531 0.0625 0.19531 0.19531 0 0.13281-0.066406 0.19922-0.19531 0.19922zm-1.4766 0h-1.4727c-0.13281 0-0.19531-0.066406-0.19531-0.19922 0-0.13281 0.0625-0.19531 0.19531-0.19531h1.4727c0.12891 0 0.19531 0.0625 0.19531 0.19531 0 0.13281-0.066406 0.19922-0.19531 0.19922zm-2.9492 0h-1.4766c-0.12891 0-0.19531-0.066406-0.19531-0.19922 0-0.13281 0.066406-0.19531 0.19531-0.19531h1.4766c0.12891 0 0.19531 0.0625 0.19531 0.19531 0 0.13281-0.066406 0.19922-0.19531 0.19922zm-2.9531 0h-1.4766c-0.12891 0-0.19141-0.066406-0.19141-0.19922 0-0.13281 0.0625-0.19531 0.19141-0.19531h1.4766c0.12891 0 0.19531 0.0625 0.19531 0.19531 0 0.13281-0.066406 0.19922-0.19531 0.19922zm-2.9531 0h-1.4727c-0.13281 0-0.19531-0.066406-0.19531-0.19922 0-0.13281 0.0625-0.19531 0.19531-0.19531h1.4805c0.12891 0 0.19531 0.0625 0.19531 0.19531 0 0.13281-0.066407 0.19922-0.19531 0.19922zm-2.9492 0h-1.4766c-0.12891 0-0.19531-0.066406-0.19531-0.19922 0-0.13281 0.066406-0.19531 0.19531-0.19531h1.4766c0.12891 0 0.19531 0.0625 0.19531 0.19531 0 0.13281-0.066407 0.19922-0.19531 0.19922zm-2.9531 0h-1.4727c-0.13281 0-0.19531-0.066406-0.19531-0.19922 0-0.13281 0.0625-0.19531 0.19531-0.19531h1.4766c0.12891 0 0.19141 0.0625 0.19141 0.19531 0 0.13281-0.0625 0.19922-0.19141 0.19922zm-2.9492 0h-1.4766c-0.12891 0-0.19531-0.066406-0.19531-0.19922 0-0.13281 0.066406-0.19531 0.19531-0.19531h1.4727c0.12891 0 0.19531 0.0625 0.19531 0.19531 0 0.13281-0.066407 0.19922-0.19531 0.19922zm-2.9531 0h-1.4766c-0.12891 0-0.19141-0.066406-0.19141-0.19922 0-0.13281 0.0625-0.19531 0.19141-0.19531h1.4766c0.13281 0 0.19531 0.0625 0.19531 0.19531 0 0.13281-0.0625 0.19922-0.19531 0.19922zm-2.9531 0h-1.4727c-0.12891 0-0.19531-0.066406-0.19531-0.19922 0-0.13281 0.066407-0.19531 0.19531-0.19531h1.4766c0.12891 0 0.19531 0.0625 0.19531 0.19531 0 0.13281-0.066406 0.19922-0.19531 0.19922zm-2.9492 0h-1.0977c-0.12891 0-0.26172 0-0.39062-0.015625-0.12891-0.007813-0.19141-0.078125-0.18359-0.20703 0.011718-0.13281 0.078124-0.19531 0.21094-0.1875 0.11719 0.007812 0.24219 0.011718 0.36328 0.011718h1.0977c0.12891 0 0.19531 0.066407 0.19531 0.19922 0 0.12891-0.066406 0.19531-0.19531 0.19531zm30.992-0.19922c-0.097656 0-0.16016-0.050781-0.1875-0.14844-0.03125-0.125 0.011719-0.20703 0.14062-0.23828 0.46094-0.125 0.89844-0.30469 1.3164-0.54297 0.11328-0.066406 0.20312-0.042969 0.26562 0.074218 0.066406 0.11328 0.042969 0.20313-0.070312 0.26953-0.44531 0.25391-0.91797 0.44531-1.4102 0.57812-0.015626 0.007812-0.035157 0.011719-0.050782 0.011719zm-33.91-0.097656c-0.023438 0-0.042969-0.003906-0.0625-0.011719-0.48438-0.16016-0.94141-0.38281-1.3711-0.66797-0.11719-0.070313-0.13672-0.16016-0.0625-0.27344 0.070312-0.11719 0.16406-0.13281 0.27344-0.054688 0.40234 0.26172 0.82812 0.46875 1.2812 0.62109 0.10547 0.035156 0.14844 0.10938 0.13281 0.21875-0.019531 0.11328-0.082031 0.16797-0.19141 0.16797zm36.453-1.3516c-0.054688 0-0.10156-0.019531-0.14062-0.0625-0.089844-0.09375-0.085938-0.1875 0.007812-0.27734 0.34375-0.33594 0.64062-0.71094 0.88672-1.125 0.066406-0.12109 0.15625-0.14453 0.27344-0.074219 0.11719 0.074219 0.13672 0.16797 0.058594 0.28125-0.26562 0.44141-0.58203 0.83984-0.94922 1.2031-0.039063 0.035156-0.082032 0.054687-0.13672 0.054687zm-38.902-0.25781c-0.058594 0-0.10547-0.019531-0.14453-0.0625-0.34375-0.38281-0.63672-0.80078-0.875-1.2578-0.050782-0.11328-0.023438-0.19922 0.085937-0.25781s0.19531-0.035156 0.25781 0.070313c0.22266 0.42969 0.49609 0.82031 0.82031 1.1797 0.058594 0.0625 0.070313 0.13281 0.035156 0.21094-0.035156 0.078126-0.09375 0.11719-0.17969 0.11719zm40.426-2.2695c-0.019531 0-0.039062 0-0.054687-0.007813-0.125-0.035156-0.16797-0.11719-0.13281-0.24609 0.13672-0.46094 0.21484-0.93359 0.23438-1.418 0.003907-0.13281 0.070313-0.19531 0.20312-0.19141 0.12891 0.007812 0.19141 0.074218 0.1875 0.20703-0.019531 0.51562-0.10547 1.0234-0.25 1.5195-0.027344 0.09375-0.089844 0.14453-0.1875 0.14453zm-41.789-0.34375c-0.10547 0.003906-0.17188-0.046875-0.19531-0.14844-0.10547-0.45703-0.15625-0.92188-0.15625-1.3906v-0.14062c0-0.12891 0.0625-0.19531 0.19531-0.19531 0.12891 0 0.19141 0.066406 0.19141 0.19531v0.14062c0 0.4375 0.050781 0.87109 0.14844 1.2969 0.03125 0.12891-0.015626 0.20703-0.14453 0.23828-0.011718 0.003907-0.027344 0.003907-0.039062 0.003907zm42.035-2.6133c-0.12891 0-0.19531-0.066407-0.19531-0.19922v-1.4922c0-0.13281 0.066406-0.19922 0.19531-0.19922s0.19531 0.066407 0.19531 0.19922v1.4922c0 0.13281-0.066406 0.19922-0.19922 0.19922zm-42.191-0.35938c-0.12891 0-0.19531-0.066406-0.19531-0.19922v-1.4922c0-0.13281 0.066407-0.19922 0.19531-0.19922 0.13281 0 0.19531 0.066406 0.19531 0.19922v1.4922c0 0.13281-0.0625 0.19922-0.19531 0.19922zm42.188-2.6289c-0.12891 0-0.19141-0.066406-0.19141-0.19922v-1.4922c0-0.13281 0.0625-0.19922 0.19141-0.19922 0.13281 0 0.19531 0.066407 0.19531 0.19922v1.4922c0 0.13281-0.0625 0.19922-0.19531 0.19922zm-42.188-0.36328c-0.12891 0-0.19531-0.0625-0.19531-0.19531v-1.4961c0-0.12891 0.066407-0.19531 0.19531-0.19531 0.13281 0 0.19531 0.066406 0.19531 0.19531v1.4961c0 0.13281-0.0625 0.19531-0.19531 0.19531zm42.188-2.625c-0.12891 0-0.19141-0.066406-0.19141-0.19922v-1.4922c0-0.13281 0.0625-0.19922 0.19141-0.19922 0.13281 0 0.19531 0.066406 0.19531 0.19922v1.4922c0 0.13281-0.0625 0.19922-0.19531 0.19922zm-42.188-0.36328c-0.12891 0-0.19531-0.0625-0.19531-0.19531v-1.4922c0-0.12891 0.066407-0.19531 0.19531-0.19531 0.13281 0 0.19531 0.066407 0.19531 0.19531v1.4961c0 0.12891-0.066406 0.19141-0.19531 0.19141zm42.188-2.625c-0.12891 0-0.19141-0.066406-0.19141-0.19922v-1.4922c0-0.13281 0.0625-0.19922 0.19141-0.19922 0.13281 0 0.19531 0.066406 0.19531 0.19922v1.4922c0 0.13281-0.0625 0.19922-0.19531 0.19922zm-42.188-0.35938c-0.12891 0-0.19531-0.066407-0.19531-0.19922v-1.4961c0-0.12891 0.066407-0.19531 0.19531-0.19531 0.13281 0 0.19531 0.066406 0.19531 0.19531v1.4961c0 0.13281-0.0625 0.19922-0.19531 0.19922zm42.188-2.6289c-0.12891 0-0.19141-0.066406-0.19141-0.19922v-1.4961c0-0.12891 0.0625-0.19531 0.19141-0.19531 0.13281 0 0.19531 0.066406 0.19531 0.19531v1.4961c0 0.13281-0.0625 0.19922-0.19531 0.19922zm-42.188-0.36328c-0.12891 0-0.19531-0.0625-0.19531-0.19531v-1.2617c0-0.082031 0-0.16016 0.007813-0.24219 0.003906-0.12891 0.070312-0.19141 0.19922-0.1875 0.13281 0.003907 0.19531 0.074219 0.1875 0.20313 0 0.074218-0.003906 0.15234-0.003906 0.22656v1.2617c0 0.13281-0.0625 0.19531-0.19531 0.19531zm42.035-2.6133c-0.10156 0-0.16797-0.050781-0.19141-0.15234-0.10938-0.46875-0.27734-0.91797-0.5-1.3477-0.0625-0.11328-0.039063-0.20312 0.078125-0.26953 0.11719-0.0625 0.20703-0.03125 0.26562 0.085937 0.24219 0.45703 0.41797 0.9375 0.53516 1.4414 0.03125 0.12891-0.015625 0.20703-0.14453 0.23828-0.011719 0.003906-0.027344 0.003906-0.042969 0.003906zm-41.781-0.34766c-0.019531 0-0.039062-0.003906-0.058594-0.007813-0.12109-0.039062-0.16406-0.12109-0.12891-0.24609 0.14844-0.49609 0.35547-0.96484 0.625-1.4062 0.066406-0.11328 0.15625-0.13281 0.26953-0.066407 0.10938 0.070313 0.12891 0.16016 0.0625 0.27344-0.25 0.41016-0.44531 0.84766-0.58594 1.3125-0.027344 0.09375-0.089844 0.14062-0.18359 0.14062zm40.418-2.2617c-0.058594 0-0.10547-0.023437-0.14453-0.066406-0.32422-0.35547-0.6875-0.66406-1.0859-0.92578-0.10938-0.074219-0.12891-0.16406-0.058594-0.27344 0.070313-0.10938 0.16016-0.12891 0.26953-0.058594 0.42969 0.28125 0.81641 0.61328 1.1602 0.99219 0.089844 0.097656 0.085937 0.19141-0.011719 0.27734-0.039063 0.039062-0.082031 0.054687-0.13672 0.054687zm-38.898-0.25781c-0.085937 0-0.14844-0.042968-0.17969-0.125-0.035156-0.082031-0.019532-0.15625 0.046875-0.21484 0.36719-0.35938 0.77344-0.66406 1.2188-0.92188 0.11328-0.0625 0.20312-0.039063 0.26953 0.074218 0.0625 0.11719 0.039062 0.20703-0.074219 0.27344-0.41797 0.23438-0.80078 0.52344-1.1445 0.85938-0.039062 0.035156-0.082031 0.054687-0.13672 0.054687zm36.438-1.3477c-0.019531 0-0.039062-0.003906-0.058593-0.007812-0.45313-0.15234-0.92188-0.24219-1.3984-0.27344-0.12891-0.007812-0.1875-0.078125-0.17969-0.21094 0.007813-0.12891 0.074219-0.19141 0.20703-0.18359 0.50781 0.035156 1.0078 0.13281 1.4922 0.29688 0.10547 0.035156 0.14844 0.10547 0.13281 0.21875-0.019532 0.10938-0.082032 0.16406-0.19531 0.16406zm-33.891-0.097656c-0.11328 0-0.17578-0.058594-0.19141-0.17188-0.011719-0.11328 0.035156-0.1875 0.14453-0.21484 0.49219-0.13281 0.99609-0.19922 1.5078-0.19922 0.12891 0 0.19141 0.066407 0.19141 0.19922 0 0.12891-0.0625 0.19531-0.19141 0.19531-0.48047 0-0.94922 0.0625-1.4102 0.18359-0.019532 0.003906-0.035157 0.003906-0.050782 0.003906zm30.969-0.19141h-1.4727c-0.12891 0-0.19531-0.066406-0.19531-0.19531 0-0.13281 0.066406-0.19922 0.19531-0.19922h1.4766c0.12891 0 0.19531 0.066407 0.19531 0.19922 0 0.12891-0.066406 0.19531-0.19531 0.19531zm-2.9492 0h-1.4727c-0.13281 0-0.19531-0.066406-0.19531-0.19531 0-0.13281 0.0625-0.19922 0.19531-0.19922h1.4727c0.13281 0 0.19531 0.066407 0.19531 0.19922 0 0.12891-0.0625 0.19531-0.19531 0.19531zm-2.9531 0h-1.4727c-0.13281 0-0.19531-0.066406-0.19531-0.19531 0-0.13281 0.0625-0.19922 0.19531-0.19922h1.4727c0.13281 0 0.19531 0.066407 0.19531 0.19922 0 0.12891-0.0625 0.19531-0.19531 0.19531zm-2.9492 0h-1.4766c-0.12891 0-0.19141-0.066406-0.19141-0.19531 0-0.13281 0.0625-0.19922 0.19141-0.19922h1.4766c0.12891 0 0.19531 0.066407 0.19531 0.19922 0 0.12891-0.066406 0.19531-0.19531 0.19531zm-2.9531 0h-1.4727c-0.13281 0-0.19531-0.066406-0.19531-0.19531 0-0.13281 0.0625-0.19922 0.19531-0.19922h1.4727c0.13281 0 0.19531 0.066407 0.19531 0.19922 0 0.12891-0.0625 0.19531-0.19531 0.19531zm-2.9492 0h-1.4766c-0.12891 0-0.19531-0.066406-0.19531-0.19531 0-0.13281 0.066406-0.19922 0.19531-0.19922h1.4766c0.12891 0 0.19531 0.066407 0.19531 0.19922 0 0.12891-0.066406 0.19531-0.19531 0.19531zm-2.9531 0h-1.4727c-0.13281 0-0.19531-0.066406-0.19531-0.19531 0-0.13281 0.0625-0.19922 0.19531-0.19922h1.4805c0.12891 0 0.19531 0.066407 0.19531 0.19922 0 0.12891-0.066406 0.19531-0.19531 0.19531zm-2.9492 0h-1.4766c-0.12891 0-0.19531-0.066406-0.19531-0.19531 0-0.13281 0.066407-0.19922 0.19531-0.19922h1.4766c0.12891 0 0.19531 0.066407 0.19531 0.19922 0 0.12891-0.066407 0.19531-0.19531 0.19531zm-2.9531 0h-1.4766c-0.12891 0-0.19141-0.066406-0.19141-0.19531 0-0.13281 0.0625-0.19922 0.19141-0.19922h1.4766c0.13281 0 0.19531 0.066407 0.19531 0.19922 0 0.12891-0.0625 0.19531-0.19531 0.19531zm-2.9492 0h-1.4766c-0.12891 0-0.19531-0.066406-0.19531-0.19531 0-0.13281 0.066406-0.19922 0.19531-0.19922h1.4727c0.12891 0 0.19531 0.066407 0.19531 0.19922 0 0.12891-0.066407 0.19531-0.19531 0.19531z" fill="#000"/> </g> <g clip-path="url(#177ceeb106)"> <g clip-path="url(#82ef2166ee)"> <path d="m91.707 97.746h41.074v28.434h-41.074z" fill="#0b62c6"/> </g> </g> <g clip-path="url(#91bff1a771)"> <path d="m112.68 115.84c-0.19531 0.19531-0.23828 0.42188-0.13281 0.67188l3.1562 7.6875c0.10938 0.26172 0.30859 0.38672 0.59375 0.37891 0.28516-0.007812 0.47656-0.14453 0.57031-0.41406l1.0156-3.1289 3.1211-1.0039c0.26562-0.097656 0.40625-0.28516 0.41406-0.57031 0.007812-0.28906-0.12109-0.48438-0.38281-0.59766l-7.6836-3.1523c-0.25391-0.10547-0.47656-0.0625-0.67187 0.12891z" fill="#000"/> </g> <g clip-path="url(#2fe8c575c7)"> <path d="m125.09 124.37c0 2.0664-1.6758 3.7383-3.7461 3.7383-2.0664 0-3.7422-1.6719-3.7422-3.7383 0-2.0664 1.6758-3.7383 3.7422-3.7383 2.0703 0 3.7461 1.6719 3.7461 3.7383z" fill="#78c300"/> </g> <path d="m119.42 123.92h3.9727v0.9375h-3.9727z" fill="#fff"/> <path d="m120.93 122.41h0.9375v3.9688h-0.9375z" fill="#fff"/> <g fill="#000"> <g transform="translate(6.9014 44.177)"> <path d="m2.8906 0h-2.3281v-6.5312h2.3438c0.65625 0 1.2188 0.13281 1.6875 0.39062 0.47656 0.26172 0.84375 0.63672 1.0938 1.125 0.25781 0.48047 0.39062 1.0586 0.39062 1.7344 0 0.6875-0.13281 1.2773-0.39062 1.7656-0.25 0.49219-0.61719 0.86719-1.0938 1.125-0.48047 0.26172-1.0469 0.39062-1.7031 0.39062zm-0.9375-1.1875h0.875c0.61328 0 1.0781-0.16016 1.3906-0.48438 0.32031-0.33203 0.48438-0.86719 0.48438-1.6094 0-0.71875-0.16406-1.2383-0.48438-1.5625-0.3125-0.33203-0.77734-0.5-1.3906-0.5h-0.875z"/> </g> <g transform="translate(13.437 44.177)"> <path d="m2.7812 0.09375c-0.51172 0-0.94922-0.097656-1.3125-0.29688-0.35547-0.20703-0.63281-0.5-0.82812-0.875-0.19922-0.38281-0.29688-0.83203-0.29688-1.3438 0-0.50781 0.097656-0.95312 0.29688-1.3281 0.19531-0.38281 0.47266-0.67969 0.82812-0.89062 0.35156-0.21875 0.76953-0.32812 1.25-0.32812 0.4375 0 0.82812 0.09375 1.1719 0.28125 0.34375 0.17969 0.61719 0.45312 0.82812 0.82812 0.20703 0.36719 0.3125 0.82812 0.3125 1.3906v0.35938h-3.3438v0.015625c0 0.36719 0.097656 0.65234 0.29688 0.85938 0.19531 0.21094 0.46875 0.3125 0.8125 0.3125 0.22656 0 0.42578-0.046875 0.59375-0.14062 0.16406-0.09375 0.28125-0.23438 0.34375-0.42188l1.2656 0.078125c-0.09375 0.46094-0.33984 0.82422-0.73438 1.0938-0.38672 0.27344-0.88281 0.40625-1.4844 0.40625zm-1.0938-3.0312h2.0625c0-0.28906-0.09375-0.53125-0.28125-0.71875-0.1875-0.19531-0.42969-0.29688-0.71875-0.29688-0.30469 0-0.55469 0.10156-0.75 0.29688-0.19922 0.19922-0.30469 0.4375-0.3125 0.71875z"/> </g> <g transform="translate(18.808 44.177)"> <path d="m4.625-3.5-1.25 0.078125c-0.03125-0.15625-0.12109-0.28906-0.26562-0.40625-0.13672-0.11328-0.32031-0.17188-0.54688-0.17188-0.21875 0-0.40234 0.046875-0.54688 0.14062-0.14844 0.085937-0.21484 0.19922-0.20312 0.34375-0.011719 0.11719 0.03125 0.21484 0.125 0.29688 0.10156 0.085938 0.26562 0.14844 0.48438 0.1875l0.89062 0.1875c0.94531 0.1875 1.4219 0.63281 1.4219 1.3281 0 0.32422-0.09375 0.60547-0.28125 0.84375-0.1875 0.24219-0.44922 0.42969-0.78125 0.5625-0.32422 0.13281-0.69922 0.20312-1.125 0.20312-0.64844 0-1.1641-0.13281-1.5469-0.40625-0.38672-0.26953-0.60938-0.64062-0.67188-1.1094l1.3281-0.0625c0.039062 0.19922 0.14062 0.35156 0.29688 0.45312 0.15625 0.09375 0.35156 0.14062 0.59375 0.14062 0.23828 0 0.42969-0.046875 0.57812-0.14062 0.14453-0.09375 0.21875-0.20703 0.21875-0.34375 0-0.25-0.21094-0.41406-0.625-0.5l-0.84375-0.15625c-0.94922-0.19531-1.4219-0.66406-1.4219-1.4062 0-0.46875 0.1875-0.83594 0.5625-1.1094 0.38281-0.28125 0.89062-0.42188 1.5156-0.42188s1.1133 0.13672 1.4688 0.40625c0.35156 0.26172 0.5625 0.61719 0.625 1.0625z"/> </g> <g transform="translate(23.856 44.177)"> <path d="m0.54688 0v-4.9062h1.3594v4.9062zm0.6875-5.5312c-0.19922 0-0.37109-0.066406-0.51562-0.20312-0.14844-0.13281-0.21875-0.29688-0.21875-0.48438s0.070312-0.34766 0.21875-0.48438c0.14453-0.13281 0.31641-0.20312 0.51562-0.20312 0.19531 0 0.36719 0.070312 0.51562 0.20312 0.14453 0.13672 0.21875 0.29688 0.21875 0.48438s-0.074219 0.35156-0.21875 0.48438c-0.14844 0.13672-0.32031 0.20312-0.51562 0.20312z"/> </g> <g transform="translate(26.301 44.177)"> <path d="m2.75 1.9062c-0.65625 0-1.1797-0.13281-1.5625-0.39062-0.375-0.26172-0.60156-0.57422-0.67188-0.9375l1.25-0.17188c0.050781 0.13281 0.15625 0.25391 0.3125 0.35938 0.16406 0.11328 0.39844 0.17188 0.70312 0.17188 0.28906 0 0.53125-0.074219 0.71875-0.21875 0.19531-0.13672 0.29688-0.36719 0.29688-0.6875v-0.90625h-0.046875c-0.09375 0.21094-0.25781 0.39844-0.48438 0.5625-0.21875 0.16797-0.52734 0.25-0.92188 0.25-0.36719 0-0.69922-0.085938-1-0.26562-0.30469-0.17578-0.54297-0.4375-0.71875-0.78125-0.17969-0.35156-0.26562-0.80078-0.26562-1.3438 0-0.5625 0.085937-1.0234 0.26562-1.3906 0.1875-0.375 0.42969-0.65625 0.73438-0.84375 0.30078-0.1875 0.62891-0.28125 0.98438-0.28125 0.26953 0 0.5 0.046875 0.6875 0.14062s0.33594 0.21094 0.45312 0.34375c0.11328 0.13672 0.20312 0.27344 0.26562 0.40625h0.046875v-0.82812h1.3438v4.9531c0 0.40625-0.10547 0.74219-0.3125 1.0156-0.19922 0.28125-0.48047 0.48828-0.84375 0.625-0.35547 0.14453-0.76562 0.21875-1.2344 0.21875zm0.03125-3c0.32031 0 0.57031-0.11719 0.75-0.35938 0.1875-0.23828 0.28125-0.57812 0.28125-1.0156 0-0.42578-0.089844-0.76953-0.26562-1.0312-0.17969-0.25781-0.43359-0.39062-0.76562-0.39062-0.33594 0-0.58984 0.13672-0.76562 0.40625-0.17969 0.26172-0.26562 0.60156-0.26562 1.0156 0 0.42969 0.085938 0.76562 0.26562 1.0156 0.17578 0.24219 0.42969 0.35938 0.76562 0.35938z"/> </g> <g transform="translate(31.991 44.177)"> <path d="m1.9062-2.8281v2.8281h-1.3594v-4.9062h1.2969v0.875h0.046875c0.11328-0.28906 0.29688-0.51953 0.54688-0.6875 0.25781-0.16406 0.57031-0.25 0.9375-0.25 0.50781 0 0.91406 0.16797 1.2188 0.5 0.3125 0.32422 0.46875 0.77344 0.46875 1.3438v3.125h-1.3594v-2.875c0-0.30078-0.078125-0.53516-0.23438-0.70312-0.15625-0.16406-0.37109-0.25-0.64062-0.25-0.27344 0-0.49609 0.089844-0.67188 0.26562-0.16797 0.16797-0.25 0.41406-0.25 0.73438z"/> </g> </g>
</svg>